<mxfile host="app.diagrams.net" modified="2023-06-22T13:33:39.814Z" agent="Mozilla/5.0 (Windows NT 10.0; Win64; x64) AppleWebKit/537.36 (KHTML, like Gecko) Chrome/114.0.0.0 Safari/537.36" etag="QSED_oQ7PuagWpO_P03I" version="21.5.0" type="device">
  <diagram name="Pagina-1" id="E9ZsB6coNPV8up63-k5l">
    <mxGraphModel dx="2074" dy="1819" grid="1" gridSize="10" guides="1" tooltips="1" connect="1" arrows="1" fold="1" page="1" pageScale="1" pageWidth="827" pageHeight="1169" math="0" shadow="0">
      <root>
        <mxCell id="0" />
        <mxCell id="1" parent="0" />
        <mxCell id="X_VciKtyPquLA0QSrDed-101" style="edgeStyle=orthogonalEdgeStyle;rounded=0;orthogonalLoop=1;jettySize=auto;html=1;exitX=0.5;exitY=0;exitDx=0;exitDy=0;entryX=0;entryY=0.5;entryDx=0;entryDy=0;" edge="1" parent="1" source="X_VciKtyPquLA0QSrDed-1" target="X_VciKtyPquLA0QSrDed-2">
          <mxGeometry relative="1" as="geometry" />
        </mxCell>
        <mxCell id="X_VciKtyPquLA0QSrDed-102" value="composedBy" style="edgeLabel;html=1;align=center;verticalAlign=middle;resizable=0;points=[];" vertex="1" connectable="0" parent="X_VciKtyPquLA0QSrDed-101">
          <mxGeometry x="-0.0576" y="-3" relative="1" as="geometry">
            <mxPoint x="102" y="-5" as="offset" />
          </mxGeometry>
        </mxCell>
        <mxCell id="X_VciKtyPquLA0QSrDed-123" style="edgeStyle=orthogonalEdgeStyle;rounded=0;orthogonalLoop=1;jettySize=auto;html=1;exitX=0.75;exitY=0;exitDx=0;exitDy=0;entryX=0;entryY=0.5;entryDx=0;entryDy=0;" edge="1" parent="1" source="X_VciKtyPquLA0QSrDed-1" target="X_VciKtyPquLA0QSrDed-8">
          <mxGeometry relative="1" as="geometry" />
        </mxCell>
        <mxCell id="X_VciKtyPquLA0QSrDed-125" value="composedBy" style="edgeLabel;html=1;align=center;verticalAlign=middle;resizable=0;points=[];" vertex="1" connectable="0" parent="X_VciKtyPquLA0QSrDed-123">
          <mxGeometry x="-0.0034" y="2" relative="1" as="geometry">
            <mxPoint x="26" y="2" as="offset" />
          </mxGeometry>
        </mxCell>
        <mxCell id="X_VciKtyPquLA0QSrDed-127" style="edgeStyle=orthogonalEdgeStyle;rounded=0;orthogonalLoop=1;jettySize=auto;html=1;exitX=0.75;exitY=1;exitDx=0;exitDy=0;entryX=0;entryY=0.5;entryDx=0;entryDy=0;" edge="1" parent="1" source="X_VciKtyPquLA0QSrDed-1" target="X_VciKtyPquLA0QSrDed-9">
          <mxGeometry relative="1" as="geometry" />
        </mxCell>
        <mxCell id="X_VciKtyPquLA0QSrDed-128" value="composedBy" style="edgeLabel;html=1;align=center;verticalAlign=middle;resizable=0;points=[];" vertex="1" connectable="0" parent="X_VciKtyPquLA0QSrDed-127">
          <mxGeometry x="-0.0601" y="3" relative="1" as="geometry">
            <mxPoint x="27" y="3" as="offset" />
          </mxGeometry>
        </mxCell>
        <mxCell id="X_VciKtyPquLA0QSrDed-129" style="edgeStyle=orthogonalEdgeStyle;rounded=0;orthogonalLoop=1;jettySize=auto;html=1;exitX=0.5;exitY=1;exitDx=0;exitDy=0;entryX=0;entryY=0.5;entryDx=0;entryDy=0;" edge="1" parent="1" source="X_VciKtyPquLA0QSrDed-1" target="X_VciKtyPquLA0QSrDed-10">
          <mxGeometry relative="1" as="geometry" />
        </mxCell>
        <mxCell id="X_VciKtyPquLA0QSrDed-130" value="composedBy" style="edgeLabel;html=1;align=center;verticalAlign=middle;resizable=0;points=[];" vertex="1" connectable="0" parent="X_VciKtyPquLA0QSrDed-129">
          <mxGeometry x="0.3805" relative="1" as="geometry">
            <mxPoint x="31" as="offset" />
          </mxGeometry>
        </mxCell>
        <mxCell id="X_VciKtyPquLA0QSrDed-1" value="Prosumer" style="rounded=0;whiteSpace=wrap;html=1;" vertex="1" parent="1">
          <mxGeometry x="244" y="195" width="110" height="30" as="geometry" />
        </mxCell>
        <mxCell id="X_VciKtyPquLA0QSrDed-52" style="edgeStyle=orthogonalEdgeStyle;rounded=0;orthogonalLoop=1;jettySize=auto;html=1;exitX=1;exitY=0.5;exitDx=0;exitDy=0;entryX=0;entryY=0.5;entryDx=0;entryDy=0;" edge="1" parent="1" source="X_VciKtyPquLA0QSrDed-2" target="X_VciKtyPquLA0QSrDed-45">
          <mxGeometry relative="1" as="geometry" />
        </mxCell>
        <mxCell id="X_VciKtyPquLA0QSrDed-53" value="hasModeOfOperation" style="edgeLabel;html=1;align=center;verticalAlign=middle;resizable=0;points=[];rounded=0;" vertex="1" connectable="0" parent="X_VciKtyPquLA0QSrDed-52">
          <mxGeometry x="-0.1387" y="-1" relative="1" as="geometry">
            <mxPoint x="6" y="-1" as="offset" />
          </mxGeometry>
        </mxCell>
        <mxCell id="X_VciKtyPquLA0QSrDed-111" style="edgeStyle=orthogonalEdgeStyle;rounded=0;orthogonalLoop=1;jettySize=auto;html=1;exitX=0.5;exitY=0;exitDx=0;exitDy=0;entryX=0;entryY=0.5;entryDx=0;entryDy=0;" edge="1" parent="1" source="X_VciKtyPquLA0QSrDed-2" target="X_VciKtyPquLA0QSrDed-67">
          <mxGeometry relative="1" as="geometry" />
        </mxCell>
        <mxCell id="X_VciKtyPquLA0QSrDed-112" value="hasPowerType" style="edgeLabel;html=1;align=center;verticalAlign=middle;resizable=0;points=[];" vertex="1" connectable="0" parent="X_VciKtyPquLA0QSrDed-111">
          <mxGeometry x="-0.1211" y="2" relative="1" as="geometry">
            <mxPoint x="122" y="-29" as="offset" />
          </mxGeometry>
        </mxCell>
        <mxCell id="X_VciKtyPquLA0QSrDed-113" style="edgeStyle=orthogonalEdgeStyle;rounded=0;orthogonalLoop=1;jettySize=auto;html=1;exitX=0.75;exitY=0;exitDx=0;exitDy=0;entryX=0;entryY=0.5;entryDx=0;entryDy=0;" edge="1" parent="1" source="X_VciKtyPquLA0QSrDed-2" target="X_VciKtyPquLA0QSrDed-54">
          <mxGeometry relative="1" as="geometry" />
        </mxCell>
        <mxCell id="X_VciKtyPquLA0QSrDed-114" value="hasLocation" style="edgeLabel;html=1;align=center;verticalAlign=middle;resizable=0;points=[];" vertex="1" connectable="0" parent="X_VciKtyPquLA0QSrDed-113">
          <mxGeometry x="0.2537" relative="1" as="geometry">
            <mxPoint as="offset" />
          </mxGeometry>
        </mxCell>
        <mxCell id="X_VciKtyPquLA0QSrDed-2" value="EnergyStorage" style="rounded=0;whiteSpace=wrap;html=1;" vertex="1" parent="1">
          <mxGeometry x="480" y="10" width="120" height="30" as="geometry" />
        </mxCell>
        <mxCell id="X_VciKtyPquLA0QSrDed-8" value="Load" style="rounded=0;whiteSpace=wrap;html=1;" vertex="1" parent="1">
          <mxGeometry x="479" y="130" width="120" height="30" as="geometry" />
        </mxCell>
        <mxCell id="X_VciKtyPquLA0QSrDed-9" value="Generator" style="rounded=0;whiteSpace=wrap;html=1;" vertex="1" parent="1">
          <mxGeometry x="480" y="250" width="120" height="30" as="geometry" />
        </mxCell>
        <mxCell id="X_VciKtyPquLA0QSrDed-10" value="EnergyMeter" style="rounded=0;whiteSpace=wrap;html=1;" vertex="1" parent="1">
          <mxGeometry x="478" y="370" width="120" height="30" as="geometry" />
        </mxCell>
        <mxCell id="X_VciKtyPquLA0QSrDed-30" value="" style="endArrow=classic;html=1;rounded=0;exitX=0;exitY=0.5;exitDx=0;exitDy=0;entryX=1;entryY=0.5;entryDx=0;entryDy=0;" edge="1" parent="1" source="X_VciKtyPquLA0QSrDed-1">
          <mxGeometry width="50" height="50" relative="1" as="geometry">
            <mxPoint x="265.00359312880727" y="169.3357287525381" as="sourcePoint" />
            <mxPoint x="130" y="210" as="targetPoint" />
          </mxGeometry>
        </mxCell>
        <mxCell id="X_VciKtyPquLA0QSrDed-31" value="hasConfiguration" style="edgeLabel;html=1;align=center;verticalAlign=middle;resizable=0;points=[];rounded=0;" vertex="1" connectable="0" parent="X_VciKtyPquLA0QSrDed-30">
          <mxGeometry x="0.156" relative="1" as="geometry">
            <mxPoint x="12" as="offset" />
          </mxGeometry>
        </mxCell>
        <mxCell id="X_VciKtyPquLA0QSrDed-108" style="edgeStyle=orthogonalEdgeStyle;rounded=0;orthogonalLoop=1;jettySize=auto;html=1;exitX=1;exitY=0.5;exitDx=0;exitDy=0;entryX=0;entryY=0.5;entryDx=0;entryDy=0;endArrow=block;endFill=0;" edge="1" parent="1" source="X_VciKtyPquLA0QSrDed-35" target="X_VciKtyPquLA0QSrDed-106">
          <mxGeometry relative="1" as="geometry" />
        </mxCell>
        <mxCell id="X_VciKtyPquLA0QSrDed-35" value="Conf02" style="rounded=0;whiteSpace=wrap;html=1;" vertex="1" parent="1">
          <mxGeometry x="-220" y="195" width="120" height="30" as="geometry" />
        </mxCell>
        <mxCell id="X_VciKtyPquLA0QSrDed-36" value="Conf01" style="rounded=0;whiteSpace=wrap;html=1;" vertex="1" parent="1">
          <mxGeometry x="-220" y="145" width="120" height="30" as="geometry" />
        </mxCell>
        <mxCell id="X_VciKtyPquLA0QSrDed-45" value="EnergyDirection" style="rounded=0;whiteSpace=wrap;html=1;" vertex="1" parent="1">
          <mxGeometry x="780" y="10" width="120" height="30" as="geometry" />
        </mxCell>
        <mxCell id="X_VciKtyPquLA0QSrDed-121" style="edgeStyle=orthogonalEdgeStyle;rounded=0;orthogonalLoop=1;jettySize=auto;html=1;exitX=0;exitY=0.5;exitDx=0;exitDy=0;entryX=1;entryY=0.5;entryDx=0;entryDy=0;endArrow=block;endFill=0;" edge="1" parent="1" source="X_VciKtyPquLA0QSrDed-47" target="X_VciKtyPquLA0QSrDed-45">
          <mxGeometry relative="1" as="geometry" />
        </mxCell>
        <mxCell id="X_VciKtyPquLA0QSrDed-47" value="Monodirectional" style="rounded=0;whiteSpace=wrap;html=1;" vertex="1" parent="1">
          <mxGeometry x="970" y="35" width="120" height="30" as="geometry" />
        </mxCell>
        <mxCell id="X_VciKtyPquLA0QSrDed-122" style="edgeStyle=orthogonalEdgeStyle;rounded=0;orthogonalLoop=1;jettySize=auto;html=1;exitX=0;exitY=0.5;exitDx=0;exitDy=0;entryX=1;entryY=0.5;entryDx=0;entryDy=0;endArrow=block;endFill=0;" edge="1" parent="1" source="X_VciKtyPquLA0QSrDed-48" target="X_VciKtyPquLA0QSrDed-45">
          <mxGeometry relative="1" as="geometry" />
        </mxCell>
        <mxCell id="X_VciKtyPquLA0QSrDed-48" value="Bidirectional" style="rounded=0;whiteSpace=wrap;html=1;" vertex="1" parent="1">
          <mxGeometry x="970" y="-15" width="120" height="30" as="geometry" />
        </mxCell>
        <mxCell id="X_VciKtyPquLA0QSrDed-54" value="EnergyStorageLocation" style="rounded=0;whiteSpace=wrap;html=1;" vertex="1" parent="1">
          <mxGeometry x="780" y="-120" width="120" height="30" as="geometry" />
        </mxCell>
        <mxCell id="X_VciKtyPquLA0QSrDed-120" style="edgeStyle=orthogonalEdgeStyle;rounded=0;orthogonalLoop=1;jettySize=auto;html=1;exitX=0;exitY=0.5;exitDx=0;exitDy=0;entryX=1;entryY=0.5;entryDx=0;entryDy=0;endArrow=block;endFill=0;" edge="1" parent="1" source="X_VciKtyPquLA0QSrDed-55" target="X_VciKtyPquLA0QSrDed-54">
          <mxGeometry relative="1" as="geometry" />
        </mxCell>
        <mxCell id="X_VciKtyPquLA0QSrDed-55" value="Post-Production" style="rounded=0;whiteSpace=wrap;html=1;" vertex="1" parent="1">
          <mxGeometry x="970" y="-95" width="120" height="30" as="geometry" />
        </mxCell>
        <mxCell id="X_VciKtyPquLA0QSrDed-118" style="edgeStyle=orthogonalEdgeStyle;rounded=0;orthogonalLoop=1;jettySize=auto;html=1;exitX=0;exitY=0.5;exitDx=0;exitDy=0;entryX=1;entryY=0.5;entryDx=0;entryDy=0;endArrow=block;endFill=0;" edge="1" parent="1" source="X_VciKtyPquLA0QSrDed-56" target="X_VciKtyPquLA0QSrDed-54">
          <mxGeometry relative="1" as="geometry" />
        </mxCell>
        <mxCell id="X_VciKtyPquLA0QSrDed-56" value="Production" style="rounded=0;whiteSpace=wrap;html=1;" vertex="1" parent="1">
          <mxGeometry x="970" y="-145" width="120" height="30" as="geometry" />
        </mxCell>
        <mxCell id="X_VciKtyPquLA0QSrDed-65" style="edgeStyle=orthogonalEdgeStyle;rounded=0;orthogonalLoop=1;jettySize=auto;html=1;entryX=0.5;entryY=1;entryDx=0;entryDy=0;endArrow=block;endFill=0;" edge="1" parent="1" source="X_VciKtyPquLA0QSrDed-61" target="X_VciKtyPquLA0QSrDed-10">
          <mxGeometry relative="1" as="geometry" />
        </mxCell>
        <mxCell id="X_VciKtyPquLA0QSrDed-61" value="M2" style="rounded=0;whiteSpace=wrap;html=1;" vertex="1" parent="1">
          <mxGeometry x="478" y="470" width="120" height="30" as="geometry" />
        </mxCell>
        <mxCell id="X_VciKtyPquLA0QSrDed-62" value="M1" style="rounded=0;whiteSpace=wrap;html=1;" vertex="1" parent="1">
          <mxGeometry x="322" y="470" width="120" height="30" as="geometry" />
        </mxCell>
        <mxCell id="X_VciKtyPquLA0QSrDed-66" style="edgeStyle=orthogonalEdgeStyle;rounded=0;orthogonalLoop=1;jettySize=auto;html=1;exitX=0.5;exitY=0;exitDx=0;exitDy=0;endArrow=block;endFill=0;" edge="1" parent="1" source="X_VciKtyPquLA0QSrDed-63">
          <mxGeometry relative="1" as="geometry">
            <mxPoint x="538" y="400" as="targetPoint" />
          </mxGeometry>
        </mxCell>
        <mxCell id="X_VciKtyPquLA0QSrDed-63" value="M3" style="rounded=0;whiteSpace=wrap;html=1;" vertex="1" parent="1">
          <mxGeometry x="638" y="470" width="120" height="30" as="geometry" />
        </mxCell>
        <mxCell id="X_VciKtyPquLA0QSrDed-64" value="" style="endArrow=block;html=1;rounded=0;exitX=0.5;exitY=0;exitDx=0;exitDy=0;entryX=0.5;entryY=1;entryDx=0;entryDy=0;edgeStyle=orthogonalEdgeStyle;endFill=0;" edge="1" parent="1" source="X_VciKtyPquLA0QSrDed-62" target="X_VciKtyPquLA0QSrDed-10">
          <mxGeometry width="50" height="50" relative="1" as="geometry">
            <mxPoint x="528" y="560" as="sourcePoint" />
            <mxPoint x="578" y="510" as="targetPoint" />
          </mxGeometry>
        </mxCell>
        <mxCell id="X_VciKtyPquLA0QSrDed-67" value="PowerType" style="rounded=0;whiteSpace=wrap;html=1;" vertex="1" parent="1">
          <mxGeometry x="780" y="-245" width="120" height="30" as="geometry" />
        </mxCell>
        <mxCell id="X_VciKtyPquLA0QSrDed-117" style="edgeStyle=orthogonalEdgeStyle;rounded=0;orthogonalLoop=1;jettySize=auto;html=1;exitX=0;exitY=0.5;exitDx=0;exitDy=0;entryX=1;entryY=0.5;entryDx=0;entryDy=0;endArrow=block;endFill=0;" edge="1" parent="1" source="X_VciKtyPquLA0QSrDed-68" target="X_VciKtyPquLA0QSrDed-67">
          <mxGeometry relative="1" as="geometry" />
        </mxCell>
        <mxCell id="X_VciKtyPquLA0QSrDed-68" value="DC" style="rounded=0;whiteSpace=wrap;html=1;" vertex="1" parent="1">
          <mxGeometry x="970" y="-220" width="120" height="30" as="geometry" />
        </mxCell>
        <mxCell id="X_VciKtyPquLA0QSrDed-115" style="edgeStyle=orthogonalEdgeStyle;rounded=0;orthogonalLoop=1;jettySize=auto;html=1;exitX=0;exitY=0.5;exitDx=0;exitDy=0;entryX=1;entryY=0.5;entryDx=0;entryDy=0;endArrow=block;endFill=0;" edge="1" parent="1" source="X_VciKtyPquLA0QSrDed-69" target="X_VciKtyPquLA0QSrDed-67">
          <mxGeometry relative="1" as="geometry" />
        </mxCell>
        <mxCell id="X_VciKtyPquLA0QSrDed-69" value="AC" style="rounded=0;whiteSpace=wrap;html=1;" vertex="1" parent="1">
          <mxGeometry x="970" y="-270" width="120" height="30" as="geometry" />
        </mxCell>
        <mxCell id="X_VciKtyPquLA0QSrDed-76" value="saref:Power" style="rounded=0;whiteSpace=wrap;html=1;" vertex="1" parent="1">
          <mxGeometry x="7" y="810" width="120" height="30" as="geometry" />
        </mxCell>
        <mxCell id="X_VciKtyPquLA0QSrDed-78" style="edgeStyle=orthogonalEdgeStyle;rounded=0;orthogonalLoop=1;jettySize=auto;html=1;exitX=0.25;exitY=0;exitDx=0;exitDy=0;entryX=0;entryY=0.5;entryDx=0;entryDy=0;" edge="1" parent="1" source="X_VciKtyPquLA0QSrDed-77" target="X_VciKtyPquLA0QSrDed-76">
          <mxGeometry relative="1" as="geometry" />
        </mxCell>
        <mxCell id="X_VciKtyPquLA0QSrDed-79" value="saref:relatesToProperty" style="edgeLabel;html=1;align=center;verticalAlign=middle;resizable=0;points=[];rounded=0;" vertex="1" connectable="0" parent="X_VciKtyPquLA0QSrDed-78">
          <mxGeometry x="-0.2836" y="-1" relative="1" as="geometry">
            <mxPoint x="50" y="-1" as="offset" />
          </mxGeometry>
        </mxCell>
        <mxCell id="X_VciKtyPquLA0QSrDed-82" style="edgeStyle=orthogonalEdgeStyle;rounded=0;orthogonalLoop=1;jettySize=auto;html=1;exitX=0.75;exitY=0;exitDx=0;exitDy=0;entryX=0;entryY=0.5;entryDx=0;entryDy=0;" edge="1" parent="1" source="X_VciKtyPquLA0QSrDed-77" target="X_VciKtyPquLA0QSrDed-90">
          <mxGeometry relative="1" as="geometry">
            <mxPoint x="140" y="870" as="targetPoint" />
            <Array as="points">
              <mxPoint x="-120" y="870" />
            </Array>
          </mxGeometry>
        </mxCell>
        <mxCell id="X_VciKtyPquLA0QSrDed-83" value="saref:hasValue" style="edgeLabel;html=1;align=center;verticalAlign=middle;resizable=0;points=[];rounded=0;" vertex="1" connectable="0" parent="X_VciKtyPquLA0QSrDed-82">
          <mxGeometry x="-0.5282" y="-1" relative="1" as="geometry">
            <mxPoint x="38" y="-1" as="offset" />
          </mxGeometry>
        </mxCell>
        <mxCell id="X_VciKtyPquLA0QSrDed-84" style="edgeStyle=orthogonalEdgeStyle;rounded=0;orthogonalLoop=1;jettySize=auto;html=1;exitX=1;exitY=0.5;exitDx=0;exitDy=0;entryX=0;entryY=0.5;entryDx=0;entryDy=0;" edge="1" parent="1" source="X_VciKtyPquLA0QSrDed-77" target="X_VciKtyPquLA0QSrDed-81">
          <mxGeometry relative="1" as="geometry" />
        </mxCell>
        <mxCell id="X_VciKtyPquLA0QSrDed-85" value="saref:isMeasuredIn" style="edgeLabel;html=1;align=center;verticalAlign=middle;resizable=0;points=[];rounded=0;" vertex="1" connectable="0" parent="X_VciKtyPquLA0QSrDed-84">
          <mxGeometry x="-0.7676" y="1" relative="1" as="geometry">
            <mxPoint x="34" y="1" as="offset" />
          </mxGeometry>
        </mxCell>
        <mxCell id="X_VciKtyPquLA0QSrDed-95" style="edgeStyle=orthogonalEdgeStyle;rounded=0;orthogonalLoop=1;jettySize=auto;html=1;exitX=0.75;exitY=1;exitDx=0;exitDy=0;entryX=0;entryY=0.5;entryDx=0;entryDy=0;" edge="1" parent="1" source="X_VciKtyPquLA0QSrDed-77" target="X_VciKtyPquLA0QSrDed-93">
          <mxGeometry relative="1" as="geometry" />
        </mxCell>
        <mxCell id="X_VciKtyPquLA0QSrDed-96" value="ic-data:hasUtilityPurpose" style="edgeLabel;html=1;align=center;verticalAlign=middle;resizable=0;points=[];rounded=0;" vertex="1" connectable="0" parent="X_VciKtyPquLA0QSrDed-95">
          <mxGeometry x="-0.4067" y="2" relative="1" as="geometry">
            <mxPoint x="46" y="2" as="offset" />
          </mxGeometry>
        </mxCell>
        <mxCell id="X_VciKtyPquLA0QSrDed-77" value="ic-data:DataPoint" style="rounded=0;whiteSpace=wrap;html=1;" vertex="1" parent="1">
          <mxGeometry x="-210" y="900" width="120" height="30" as="geometry" />
        </mxCell>
        <mxCell id="X_VciKtyPquLA0QSrDed-87" style="edgeStyle=orthogonalEdgeStyle;rounded=0;orthogonalLoop=1;jettySize=auto;html=1;exitX=0;exitY=0.5;exitDx=0;exitDy=0;entryX=1;entryY=0.5;entryDx=0;entryDy=0;strokeColor=default;dashed=1;" edge="1" parent="1" source="X_VciKtyPquLA0QSrDed-86" target="X_VciKtyPquLA0QSrDed-81">
          <mxGeometry relative="1" as="geometry" />
        </mxCell>
        <mxCell id="X_VciKtyPquLA0QSrDed-88" value="rdf:type" style="edgeLabel;html=1;align=center;verticalAlign=middle;resizable=0;points=[];rounded=0;" vertex="1" connectable="0" parent="X_VciKtyPquLA0QSrDed-87">
          <mxGeometry x="-0.6797" relative="1" as="geometry">
            <mxPoint x="-20" as="offset" />
          </mxGeometry>
        </mxCell>
        <mxCell id="X_VciKtyPquLA0QSrDed-81" value="saref:UnitOfMeasure" style="rounded=0;whiteSpace=wrap;html=1;" vertex="1" parent="1">
          <mxGeometry x="145" y="900" width="120" height="30" as="geometry" />
        </mxCell>
        <mxCell id="X_VciKtyPquLA0QSrDed-86" value="om:kilowatt" style="rounded=0;whiteSpace=wrap;html=1;" vertex="1" parent="1">
          <mxGeometry x="330" y="900" width="120" height="30" as="geometry" />
        </mxCell>
        <mxCell id="X_VciKtyPquLA0QSrDed-90" value="xsd:int" style="shape=parallelogram;perimeter=parallelogramPerimeter;whiteSpace=wrap;html=1;fixedSize=1;rounded=0;" vertex="1" parent="1">
          <mxGeometry x="155" y="860" width="100" height="20" as="geometry" />
        </mxCell>
        <mxCell id="X_VciKtyPquLA0QSrDed-91" style="edgeStyle=orthogonalEdgeStyle;rounded=0;orthogonalLoop=1;jettySize=auto;html=1;exitX=0;exitY=0.5;exitDx=0;exitDy=0;entryX=1;entryY=0.5;entryDx=0;entryDy=0;strokeColor=default;dashed=1;" edge="1" parent="1" source="X_VciKtyPquLA0QSrDed-94" target="X_VciKtyPquLA0QSrDed-93">
          <mxGeometry relative="1" as="geometry" />
        </mxCell>
        <mxCell id="X_VciKtyPquLA0QSrDed-92" value="rdf:type" style="edgeLabel;html=1;align=center;verticalAlign=middle;resizable=0;points=[];rounded=0;" vertex="1" connectable="0" parent="X_VciKtyPquLA0QSrDed-91">
          <mxGeometry x="-0.6797" relative="1" as="geometry">
            <mxPoint x="-20" as="offset" />
          </mxGeometry>
        </mxCell>
        <mxCell id="X_VciKtyPquLA0QSrDed-93" value="ic-data:UtilityPurpose" style="rounded=0;whiteSpace=wrap;html=1;" vertex="1" parent="1">
          <mxGeometry x="145" y="950" width="120" height="30" as="geometry" />
        </mxCell>
        <mxCell id="X_VciKtyPquLA0QSrDed-94" value="ic-data:consumption, production, minimum, maximum, lowerLimit, upperLimit" style="rounded=0;whiteSpace=wrap;html=1;" vertex="1" parent="1">
          <mxGeometry x="329" y="935" width="150" height="60" as="geometry" />
        </mxCell>
        <mxCell id="X_VciKtyPquLA0QSrDed-106" value="Configuration" style="rounded=0;whiteSpace=wrap;html=1;" vertex="1" parent="1">
          <mxGeometry x="10" y="195" width="120" height="30" as="geometry" />
        </mxCell>
        <mxCell id="X_VciKtyPquLA0QSrDed-107" value="Conf03" style="rounded=0;whiteSpace=wrap;html=1;" vertex="1" parent="1">
          <mxGeometry x="-220" y="245" width="120" height="30" as="geometry" />
        </mxCell>
        <mxCell id="X_VciKtyPquLA0QSrDed-109" style="edgeStyle=orthogonalEdgeStyle;rounded=0;orthogonalLoop=1;jettySize=auto;html=1;exitX=1;exitY=0.5;exitDx=0;exitDy=0;entryX=0;entryY=0.5;entryDx=0;entryDy=0;endArrow=block;endFill=0;" edge="1" parent="1" source="X_VciKtyPquLA0QSrDed-107" target="X_VciKtyPquLA0QSrDed-106">
          <mxGeometry relative="1" as="geometry">
            <mxPoint x="-90" y="220" as="sourcePoint" />
            <mxPoint x="20" y="220" as="targetPoint" />
          </mxGeometry>
        </mxCell>
        <mxCell id="X_VciKtyPquLA0QSrDed-110" style="edgeStyle=orthogonalEdgeStyle;rounded=0;orthogonalLoop=1;jettySize=auto;html=1;exitX=1;exitY=0.5;exitDx=0;exitDy=0;entryX=0;entryY=0.5;entryDx=0;entryDy=0;endArrow=block;endFill=0;" edge="1" parent="1" source="X_VciKtyPquLA0QSrDed-36" target="X_VciKtyPquLA0QSrDed-106">
          <mxGeometry relative="1" as="geometry">
            <mxPoint x="-80" y="230" as="sourcePoint" />
            <mxPoint x="30" y="230" as="targetPoint" />
          </mxGeometry>
        </mxCell>
        <mxCell id="X_VciKtyPquLA0QSrDed-131" value="il DataPoint è da finire" style="shape=callout;whiteSpace=wrap;html=1;perimeter=calloutPerimeter;position2=0.83;" vertex="1" parent="1">
          <mxGeometry x="-350" y="820" width="120" height="80" as="geometry" />
        </mxCell>
      </root>
    </mxGraphModel>
  </diagram>
</mxfile>
